<mxfile host="app.diagrams.net" modified="2023-09-19T16:15:25.833Z" agent="Mozilla/5.0 (Macintosh; Intel Mac OS X 10.15; rv:109.0) Gecko/20100101 Firefox/114.0" etag="lNg5YVcGiQMaVJpoXuzO" version="21.7.5" type="device">
  <diagram name="Page-1" id="17xLx5Jpj_yAPQxF6Sxz">
    <mxGraphModel dx="1004" dy="676" grid="1" gridSize="10" guides="1" tooltips="1" connect="1" arrows="1" fold="1" page="1" pageScale="1" pageWidth="850" pageHeight="1100" math="0" shadow="0">
      <root>
        <mxCell id="0" />
        <mxCell id="1" parent="0" />
        <mxCell id="ru2hNwoar7phW9bpmIqV-1" value="&lt;div&gt;Usuario registrado&lt;/div&gt;" style="shape=umlActor;verticalLabelPosition=bottom;verticalAlign=top;html=1;outlineConnect=0;" vertex="1" parent="1">
          <mxGeometry x="120" y="160" width="30" height="60" as="geometry" />
        </mxCell>
        <mxCell id="ru2hNwoar7phW9bpmIqV-2" value="&lt;div&gt;Usuario invitado&lt;/div&gt;" style="shape=umlActor;verticalLabelPosition=bottom;verticalAlign=top;html=1;outlineConnect=0;" vertex="1" parent="1">
          <mxGeometry x="120" y="330" width="30" height="60" as="geometry" />
        </mxCell>
        <mxCell id="ru2hNwoar7phW9bpmIqV-3" value="&lt;div&gt;Administrador&lt;/div&gt;" style="shape=umlActor;verticalLabelPosition=bottom;verticalAlign=top;html=1;outlineConnect=0;" vertex="1" parent="1">
          <mxGeometry x="625" y="270" width="30" height="60" as="geometry" />
        </mxCell>
        <mxCell id="ru2hNwoar7phW9bpmIqV-4" value="" style="rounded=0;whiteSpace=wrap;html=1;fillColor=none;" vertex="1" parent="1">
          <mxGeometry x="210" y="15" width="330" height="465" as="geometry" />
        </mxCell>
        <mxCell id="ru2hNwoar7phW9bpmIqV-6" value="iniciar sesi칩n" style="ellipse;whiteSpace=wrap;html=1;" vertex="1" parent="1">
          <mxGeometry x="280" y="150" width="80" height="30" as="geometry" />
        </mxCell>
        <mxCell id="ru2hNwoar7phW9bpmIqV-7" value="cerrar sesi칩n" style="ellipse;whiteSpace=wrap;html=1;" vertex="1" parent="1">
          <mxGeometry x="280" y="200" width="80" height="30" as="geometry" />
        </mxCell>
        <mxCell id="ru2hNwoar7phW9bpmIqV-8" value="" style="endArrow=block;dashed=1;endFill=0;endSize=12;html=1;rounded=0;exitX=0.5;exitY=1;exitDx=0;exitDy=0;entryX=0.5;entryY=0;entryDx=0;entryDy=0;" edge="1" parent="1" source="ru2hNwoar7phW9bpmIqV-6" target="ru2hNwoar7phW9bpmIqV-7">
          <mxGeometry width="160" relative="1" as="geometry">
            <mxPoint x="360" y="190" as="sourcePoint" />
            <mxPoint x="520" y="190" as="targetPoint" />
          </mxGeometry>
        </mxCell>
        <mxCell id="ru2hNwoar7phW9bpmIqV-10" value="" style="endArrow=none;html=1;rounded=0;exitX=0.5;exitY=0.5;exitDx=0;exitDy=0;exitPerimeter=0;entryX=0;entryY=0.5;entryDx=0;entryDy=0;" edge="1" parent="1" source="ru2hNwoar7phW9bpmIqV-1" target="ru2hNwoar7phW9bpmIqV-6">
          <mxGeometry width="50" height="50" relative="1" as="geometry">
            <mxPoint x="230" y="130" as="sourcePoint" />
            <mxPoint x="280" y="80" as="targetPoint" />
          </mxGeometry>
        </mxCell>
        <mxCell id="ru2hNwoar7phW9bpmIqV-11" value="" style="endArrow=none;html=1;rounded=0;exitX=0.5;exitY=0.5;exitDx=0;exitDy=0;exitPerimeter=0;entryX=0;entryY=0.5;entryDx=0;entryDy=0;" edge="1" parent="1" source="ru2hNwoar7phW9bpmIqV-1" target="ru2hNwoar7phW9bpmIqV-7">
          <mxGeometry width="50" height="50" relative="1" as="geometry">
            <mxPoint x="185" y="200" as="sourcePoint" />
            <mxPoint x="290" y="135" as="targetPoint" />
          </mxGeometry>
        </mxCell>
        <mxCell id="ru2hNwoar7phW9bpmIqV-14" value="buscar eventos" style="ellipse;whiteSpace=wrap;html=1;" vertex="1" parent="1">
          <mxGeometry x="280" y="280" width="80" height="30" as="geometry" />
        </mxCell>
        <mxCell id="ru2hNwoar7phW9bpmIqV-15" value="" style="endArrow=none;html=1;rounded=0;exitX=0.5;exitY=0.5;exitDx=0;exitDy=0;exitPerimeter=0;entryX=0;entryY=0.5;entryDx=0;entryDy=0;" edge="1" parent="1" target="ru2hNwoar7phW9bpmIqV-14" source="ru2hNwoar7phW9bpmIqV-1">
          <mxGeometry width="50" height="50" relative="1" as="geometry">
            <mxPoint x="175" y="230" as="sourcePoint" />
            <mxPoint x="290" y="175" as="targetPoint" />
          </mxGeometry>
        </mxCell>
        <mxCell id="ru2hNwoar7phW9bpmIqV-16" value="registrarse" style="ellipse;whiteSpace=wrap;html=1;" vertex="1" parent="1">
          <mxGeometry x="280" y="440" width="80" height="30" as="geometry" />
        </mxCell>
        <mxCell id="ru2hNwoar7phW9bpmIqV-17" value="" style="endArrow=none;html=1;rounded=0;exitX=0.5;exitY=0.5;exitDx=0;exitDy=0;exitPerimeter=0;entryX=0;entryY=0.5;entryDx=0;entryDy=0;" edge="1" parent="1" target="ru2hNwoar7phW9bpmIqV-16" source="ru2hNwoar7phW9bpmIqV-2">
          <mxGeometry width="50" height="50" relative="1" as="geometry">
            <mxPoint x="170" y="470" as="sourcePoint" />
            <mxPoint x="285" y="415" as="targetPoint" />
          </mxGeometry>
        </mxCell>
        <mxCell id="ru2hNwoar7phW9bpmIqV-18" value="" style="endArrow=none;html=1;rounded=0;exitX=0.5;exitY=0.5;exitDx=0;exitDy=0;exitPerimeter=0;entryX=0;entryY=0.5;entryDx=0;entryDy=0;" edge="1" parent="1" source="ru2hNwoar7phW9bpmIqV-2" target="ru2hNwoar7phW9bpmIqV-14">
          <mxGeometry width="50" height="50" relative="1" as="geometry">
            <mxPoint x="185" y="210" as="sourcePoint" />
            <mxPoint x="290" y="325" as="targetPoint" />
          </mxGeometry>
        </mxCell>
        <mxCell id="ru2hNwoar7phW9bpmIqV-19" value="visualizar evento" style="ellipse;whiteSpace=wrap;html=1;" vertex="1" parent="1">
          <mxGeometry x="280" y="320" width="80" height="30" as="geometry" />
        </mxCell>
        <mxCell id="ru2hNwoar7phW9bpmIqV-21" value="" style="endArrow=none;html=1;rounded=0;exitX=0.5;exitY=0.5;exitDx=0;exitDy=0;exitPerimeter=0;entryX=0;entryY=0.5;entryDx=0;entryDy=0;" edge="1" parent="1" source="ru2hNwoar7phW9bpmIqV-2" target="ru2hNwoar7phW9bpmIqV-19">
          <mxGeometry width="50" height="50" relative="1" as="geometry">
            <mxPoint x="185" y="370" as="sourcePoint" />
            <mxPoint x="290" y="295" as="targetPoint" />
          </mxGeometry>
        </mxCell>
        <mxCell id="ru2hNwoar7phW9bpmIqV-22" value="" style="endArrow=none;html=1;rounded=0;exitX=0.5;exitY=0.5;exitDx=0;exitDy=0;exitPerimeter=0;entryX=0;entryY=0.5;entryDx=0;entryDy=0;" edge="1" parent="1" source="ru2hNwoar7phW9bpmIqV-1" target="ru2hNwoar7phW9bpmIqV-19">
          <mxGeometry width="50" height="50" relative="1" as="geometry">
            <mxPoint x="195" y="370" as="sourcePoint" />
            <mxPoint x="300" y="295" as="targetPoint" />
          </mxGeometry>
        </mxCell>
        <mxCell id="ru2hNwoar7phW9bpmIqV-23" value="compartir evento" style="ellipse;whiteSpace=wrap;html=1;" vertex="1" parent="1">
          <mxGeometry x="280" y="355" width="80" height="30" as="geometry" />
        </mxCell>
        <mxCell id="ru2hNwoar7phW9bpmIqV-24" value="" style="endArrow=none;html=1;rounded=0;exitX=0.5;exitY=0.5;exitDx=0;exitDy=0;exitPerimeter=0;entryX=0;entryY=0.5;entryDx=0;entryDy=0;" edge="1" parent="1" target="ru2hNwoar7phW9bpmIqV-23" source="ru2hNwoar7phW9bpmIqV-2">
          <mxGeometry width="50" height="50" relative="1" as="geometry">
            <mxPoint x="175" y="400" as="sourcePoint" />
            <mxPoint x="290" y="335" as="targetPoint" />
          </mxGeometry>
        </mxCell>
        <mxCell id="ru2hNwoar7phW9bpmIqV-25" value="" style="endArrow=none;html=1;rounded=0;exitX=0.5;exitY=0.5;exitDx=0;exitDy=0;exitPerimeter=0;entryX=0;entryY=0.5;entryDx=0;entryDy=0;" edge="1" parent="1" target="ru2hNwoar7phW9bpmIqV-23" source="ru2hNwoar7phW9bpmIqV-1">
          <mxGeometry width="50" height="50" relative="1" as="geometry">
            <mxPoint x="175" y="230" as="sourcePoint" />
            <mxPoint x="300" y="335" as="targetPoint" />
          </mxGeometry>
        </mxCell>
        <mxCell id="ru2hNwoar7phW9bpmIqV-26" value="a침adir/modificar discoteca" style="ellipse;whiteSpace=wrap;html=1;" vertex="1" parent="1">
          <mxGeometry x="425" y="225" width="95" height="50" as="geometry" />
        </mxCell>
        <mxCell id="ru2hNwoar7phW9bpmIqV-27" value="" style="endArrow=none;html=1;rounded=0;exitX=0.5;exitY=0.5;exitDx=0;exitDy=0;exitPerimeter=0;entryX=1;entryY=0.5;entryDx=0;entryDy=0;" edge="1" parent="1" target="ru2hNwoar7phW9bpmIqV-26" source="ru2hNwoar7phW9bpmIqV-3">
          <mxGeometry width="50" height="50" relative="1" as="geometry">
            <mxPoint x="335" y="270" as="sourcePoint" />
            <mxPoint x="450" y="215" as="targetPoint" />
          </mxGeometry>
        </mxCell>
        <mxCell id="ru2hNwoar7phW9bpmIqV-28" value="a침adir/modificar evento" style="ellipse;whiteSpace=wrap;html=1;" vertex="1" parent="1">
          <mxGeometry x="425" y="285" width="100" height="40" as="geometry" />
        </mxCell>
        <mxCell id="ru2hNwoar7phW9bpmIqV-29" value="" style="endArrow=none;html=1;rounded=0;exitX=0.5;exitY=0.5;exitDx=0;exitDy=0;exitPerimeter=0;entryX=1;entryY=0.5;entryDx=0;entryDy=0;" edge="1" parent="1" target="ru2hNwoar7phW9bpmIqV-28" source="ru2hNwoar7phW9bpmIqV-3">
          <mxGeometry width="50" height="50" relative="1" as="geometry">
            <mxPoint x="640" y="340" as="sourcePoint" />
            <mxPoint x="450" y="255" as="targetPoint" />
          </mxGeometry>
        </mxCell>
        <mxCell id="ru2hNwoar7phW9bpmIqV-32" value="comentar evento/discoteca" style="ellipse;whiteSpace=wrap;html=1;" vertex="1" parent="1">
          <mxGeometry x="255" y="20" width="130" height="40" as="geometry" />
        </mxCell>
        <mxCell id="ru2hNwoar7phW9bpmIqV-33" value="" style="endArrow=none;html=1;rounded=0;exitX=0.5;exitY=0.5;exitDx=0;exitDy=0;exitPerimeter=0;entryX=0;entryY=0.5;entryDx=0;entryDy=0;" edge="1" parent="1" target="ru2hNwoar7phW9bpmIqV-32" source="ru2hNwoar7phW9bpmIqV-1">
          <mxGeometry width="50" height="50" relative="1" as="geometry">
            <mxPoint x="175" y="230" as="sourcePoint" />
            <mxPoint x="290" y="175" as="targetPoint" />
          </mxGeometry>
        </mxCell>
        <mxCell id="ru2hNwoar7phW9bpmIqV-34" value="modificar usuario" style="ellipse;whiteSpace=wrap;html=1;" vertex="1" parent="1">
          <mxGeometry x="280" y="240" width="80" height="30" as="geometry" />
        </mxCell>
        <mxCell id="ru2hNwoar7phW9bpmIqV-35" value="" style="endArrow=none;html=1;rounded=0;exitX=0.5;exitY=0.5;exitDx=0;exitDy=0;exitPerimeter=0;entryX=0;entryY=0.5;entryDx=0;entryDy=0;" edge="1" parent="1" target="ru2hNwoar7phW9bpmIqV-34" source="ru2hNwoar7phW9bpmIqV-1">
          <mxGeometry width="50" height="50" relative="1" as="geometry">
            <mxPoint x="185" y="230" as="sourcePoint" />
            <mxPoint x="300" y="215" as="targetPoint" />
          </mxGeometry>
        </mxCell>
        <mxCell id="ru2hNwoar7phW9bpmIqV-36" value="reservar entrada" style="ellipse;whiteSpace=wrap;html=1;" vertex="1" parent="1">
          <mxGeometry x="280" y="70" width="80" height="30" as="geometry" />
        </mxCell>
        <mxCell id="ru2hNwoar7phW9bpmIqV-37" value="" style="endArrow=none;html=1;rounded=0;exitX=0.5;exitY=0.5;exitDx=0;exitDy=0;exitPerimeter=0;entryX=0;entryY=0.5;entryDx=0;entryDy=0;" edge="1" parent="1" target="ru2hNwoar7phW9bpmIqV-36" source="ru2hNwoar7phW9bpmIqV-1">
          <mxGeometry width="50" height="50" relative="1" as="geometry">
            <mxPoint x="175" y="220" as="sourcePoint" />
            <mxPoint x="290" y="205" as="targetPoint" />
          </mxGeometry>
        </mxCell>
        <mxCell id="ru2hNwoar7phW9bpmIqV-51" value="pagar" style="edgeLabel;html=1;align=center;verticalAlign=middle;resizable=0;points=[];" vertex="1" connectable="0" parent="ru2hNwoar7phW9bpmIqV-37">
          <mxGeometry x="0.4154" relative="1" as="geometry">
            <mxPoint as="offset" />
          </mxGeometry>
        </mxCell>
        <mxCell id="ru2hNwoar7phW9bpmIqV-38" value="contactar con soporte" style="ellipse;whiteSpace=wrap;html=1;" vertex="1" parent="1">
          <mxGeometry x="275" y="395" width="90" height="35" as="geometry" />
        </mxCell>
        <mxCell id="ru2hNwoar7phW9bpmIqV-39" value="" style="endArrow=none;html=1;rounded=0;exitX=0.5;exitY=0.5;exitDx=0;exitDy=0;exitPerimeter=0;entryX=0;entryY=0.5;entryDx=0;entryDy=0;" edge="1" parent="1" target="ru2hNwoar7phW9bpmIqV-38" source="ru2hNwoar7phW9bpmIqV-2">
          <mxGeometry width="50" height="50" relative="1" as="geometry">
            <mxPoint x="175" y="400" as="sourcePoint" />
            <mxPoint x="290" y="375" as="targetPoint" />
          </mxGeometry>
        </mxCell>
        <mxCell id="ru2hNwoar7phW9bpmIqV-40" value="" style="endArrow=none;html=1;rounded=0;exitX=0.5;exitY=0.5;exitDx=0;exitDy=0;exitPerimeter=0;entryX=0;entryY=0.5;entryDx=0;entryDy=0;" edge="1" parent="1" target="ru2hNwoar7phW9bpmIqV-38" source="ru2hNwoar7phW9bpmIqV-1">
          <mxGeometry width="50" height="50" relative="1" as="geometry">
            <mxPoint x="175" y="230" as="sourcePoint" />
            <mxPoint x="300" y="375" as="targetPoint" />
          </mxGeometry>
        </mxCell>
        <mxCell id="ru2hNwoar7phW9bpmIqV-41" value="responder a usuarios" style="ellipse;whiteSpace=wrap;html=1;" vertex="1" parent="1">
          <mxGeometry x="425" y="335" width="100" height="40" as="geometry" />
        </mxCell>
        <mxCell id="ru2hNwoar7phW9bpmIqV-42" value="" style="endArrow=none;html=1;rounded=0;exitX=0.5;exitY=0.5;exitDx=0;exitDy=0;exitPerimeter=0;entryX=1;entryY=0.5;entryDx=0;entryDy=0;" edge="1" parent="1" target="ru2hNwoar7phW9bpmIqV-41" source="ru2hNwoar7phW9bpmIqV-3">
          <mxGeometry width="50" height="50" relative="1" as="geometry">
            <mxPoint x="640" y="350" as="sourcePoint" />
            <mxPoint x="450" y="305" as="targetPoint" />
          </mxGeometry>
        </mxCell>
        <mxCell id="ru2hNwoar7phW9bpmIqV-43" value="moderar comentarios" style="ellipse;whiteSpace=wrap;html=1;" vertex="1" parent="1">
          <mxGeometry x="425" y="130" width="100" height="40" as="geometry" />
        </mxCell>
        <mxCell id="ru2hNwoar7phW9bpmIqV-44" value="" style="endArrow=none;html=1;rounded=0;exitX=0.5;exitY=0.5;exitDx=0;exitDy=0;exitPerimeter=0;entryX=1;entryY=0.5;entryDx=0;entryDy=0;" edge="1" parent="1" target="ru2hNwoar7phW9bpmIqV-43" source="ru2hNwoar7phW9bpmIqV-3">
          <mxGeometry width="50" height="50" relative="1" as="geometry">
            <mxPoint x="640" y="190" as="sourcePoint" />
            <mxPoint x="450" y="145" as="targetPoint" />
          </mxGeometry>
        </mxCell>
        <mxCell id="ru2hNwoar7phW9bpmIqV-45" value="escoger n칰mero" style="ellipse;whiteSpace=wrap;html=1;" vertex="1" parent="1">
          <mxGeometry x="440" y="70" width="80" height="30" as="geometry" />
        </mxCell>
        <mxCell id="ru2hNwoar7phW9bpmIqV-46" value="Extends" style="endArrow=block;endSize=16;endFill=0;html=1;rounded=0;exitX=0;exitY=0.5;exitDx=0;exitDy=0;entryX=1;entryY=0.5;entryDx=0;entryDy=0;" edge="1" parent="1" source="ru2hNwoar7phW9bpmIqV-45" target="ru2hNwoar7phW9bpmIqV-36">
          <mxGeometry width="160" relative="1" as="geometry">
            <mxPoint x="490" y="140" as="sourcePoint" />
            <mxPoint x="650" y="140" as="targetPoint" />
          </mxGeometry>
        </mxCell>
        <mxCell id="ru2hNwoar7phW9bpmIqV-47" value="cancelar entrada" style="ellipse;whiteSpace=wrap;html=1;" vertex="1" parent="1">
          <mxGeometry x="280" y="110" width="80" height="30" as="geometry" />
        </mxCell>
        <mxCell id="ru2hNwoar7phW9bpmIqV-48" value="" style="endArrow=none;html=1;rounded=0;entryX=0;entryY=0.5;entryDx=0;entryDy=0;exitX=0.5;exitY=0.5;exitDx=0;exitDy=0;exitPerimeter=0;" edge="1" parent="1" source="ru2hNwoar7phW9bpmIqV-1" target="ru2hNwoar7phW9bpmIqV-47">
          <mxGeometry width="50" height="50" relative="1" as="geometry">
            <mxPoint x="170" y="190" as="sourcePoint" />
            <mxPoint x="290" y="95" as="targetPoint" />
          </mxGeometry>
        </mxCell>
        <mxCell id="ru2hNwoar7phW9bpmIqV-49" value="" style="endArrow=none;html=1;rounded=0;entryX=1;entryY=0.5;entryDx=0;entryDy=0;exitX=0.5;exitY=0.5;exitDx=0;exitDy=0;exitPerimeter=0;" edge="1" parent="1" source="ru2hNwoar7phW9bpmIqV-3" target="ru2hNwoar7phW9bpmIqV-47">
          <mxGeometry width="50" height="50" relative="1" as="geometry">
            <mxPoint x="530" y="160" as="sourcePoint" />
            <mxPoint x="300" y="105" as="targetPoint" />
          </mxGeometry>
        </mxCell>
      </root>
    </mxGraphModel>
  </diagram>
</mxfile>
